<?xml version="1.0" standalone="no"?>
<!DOCTYPE svg PUBLIC "-//W3C//DTD SVG 20010904//EN"
 "http://www.w3.org/TR/2001/REC-SVG-20010904/DTD/svg10.dtd">
<svg version="1.0" xmlns="http://www.w3.org/2000/svg"
 width="302.000000pt" height="302.000000pt" viewBox="0 0 302.000000 302.000000"
 preserveAspectRatio="xMidYMid meet">
<metadata>
Created by potrace 1.14, written by Peter Selinger 2001-2017
</metadata>
<g transform="translate(0.000000,302.000000) scale(0.100000,-0.100000)"
fill="#000000" stroke="none">
<path d="M1980 2128 c-21 -23 -26 -23 -245 -24 -123 0 -226 -2 -228 -5 -3 -2
-44 -76 -92 -164 -168 -306 -210 -379 -220 -382 -6 -2 -61 85 -123 192 -62
107 -117 197 -121 199 -16 11 -4 -62 17 -97 12 -21 22 -40 22 -42 0 -2 13 -24
30 -48 16 -25 43 -69 58 -98 39 -74 56 -103 63 -109 4 -3 9 -14 13 -25 3 -11
15 -31 25 -44 l18 -23 20 38 c11 22 27 53 36 69 9 17 64 120 123 230 59 110
117 218 130 241 l24 41 212 -4 c210 -4 213 -5 239 -29 14 -13 35 -24 47 -24
31 0 62 35 62 68 0 58 -70 83 -110 40z"/>
<path d="M549 2108 c-3 -46 -10 -465 -12 -806 -3 -281 0 -405 7 -410 17 -10
327 -9 333 2 7 11 9 149 14 786 l3 435 -172 3 c-134 2 -172 0 -173 -10z"/>
<path d="M2360 1974 l-28 -24 -399 1 -398 2 -26 -39 c-15 -21 -43 -70 -64
-109 -21 -38 -59 -108 -85 -155 -59 -106 -111 -201 -143 -262 l-24 -46 -58
101 c-32 56 -71 127 -88 157 -16 30 -38 64 -48 76 -11 11 -28 38 -39 60 l-19
39 -1 -41 c0 -25 6 -46 15 -54 8 -7 15 -16 15 -21 0 -5 21 -43 46 -86 25 -43
62 -107 82 -142 19 -36 45 -80 58 -99 13 -18 26 -43 30 -55 l7 -22 8 23 c5 12
7 24 6 26 -1 1 3 9 9 17 15 18 91 156 298 542 l31 58 394 -5 c383 -4 395 -5
410 -24 27 -35 66 -38 95 -8 29 29 33 52 11 83 -22 32 -61 35 -95 7z"/>
<path d="M2018 1835 c-23 -23 -27 -23 -241 -23 -120 0 -220 -2 -223 -4 -6 -7
-228 -403 -299 -536 -33 -61 -62 -112 -65 -112 -6 0 -30 41 -83 140 -22 41
-47 86 -57 100 -10 14 -30 48 -45 75 -15 28 -36 59 -45 70 -10 11 -20 29 -23
40 -3 11 -5 2 -6 -21 -1 -32 9 -59 47 -122 26 -45 85 -147 132 -227 80 -137
85 -144 94 -118 5 16 14 35 21 43 7 8 19 29 27 45 15 32 82 157 128 240 15 28
44 82 65 120 21 39 51 95 68 125 17 30 37 67 44 82 l14 27 211 -2 c177 -2 212
-5 222 -18 6 -9 21 -21 34 -28 50 -27 105 39 80 95 -6 13 -18 24 -27 25 -9 0
-24 2 -33 4 -9 2 -28 -7 -40 -20z"/>
<path d="M2285 1702 c-11 -2 -30 -13 -42 -24 -20 -19 -35 -20 -345 -19 l-323
2 -190 -345 c-125 -227 -194 -342 -202 -339 -7 3 -13 9 -13 13 0 5 -26 53 -58
107 -32 54 -61 105 -65 113 -4 8 -17 31 -30 51 -12 19 -33 55 -47 78 -23 40
-25 42 -31 19 -7 -27 2 -46 87 -191 35 -59 64 -112 64 -117 0 -6 5 -10 10 -10
6 0 10 -4 10 -9 0 -15 71 -131 80 -131 4 0 97 165 206 366 l198 365 311 -4
311 -4 26 -26 c29 -29 48 -33 79 -16 61 32 31 135 -36 121z"/>
<path d="M1894 1574 c-27 -22 -37 -23 -166 -24 -116 0 -138 -2 -138 -15 0 -11
13 -15 58 -16 226 -3 221 -3 237 -25 34 -49 115 -24 115 36 0 26 -21 59 -38
61 -4 0 -14 2 -23 4 -9 1 -29 -8 -45 -21z"/>
<path d="M2170 1428 c-24 -23 -26 -23 -301 -20 -261 4 -315 -1 -278 -24 6 -3
133 -8 282 -11 l271 -4 26 -24 c32 -30 63 -32 90 -5 63 63 -25 148 -90 88z"/>
<path d="M2372 1295 l-30 -26 -372 2 c-255 1 -375 -2 -383 -10 -7 -7 -6 -12 4
-15 8 -3 179 -7 381 -9 l367 -3 19 -24 c36 -45 122 -19 122 37 0 26 -41 73
-64 73 -8 0 -28 -11 -44 -25z"/>
<path d="M1930 1192 c-8 -3 -26 -13 -39 -23 -20 -16 -43 -19 -163 -18 -77 0
-143 -2 -145 -5 -3 -3 -2 -9 2 -15 4 -7 58 -11 147 -11 137 0 141 -1 164 -25
45 -49 114 -21 114 46 0 37 -41 63 -80 51z"/>
<path d="M2132 1058 c-22 -23 -23 -23 -285 -20 -230 2 -264 0 -264 -13 0 -8 1
-15 1 -16 1 -1 120 -3 265 -6 l264 -4 19 -25 c26 -33 70 -32 96 1 11 14 19 33
17 43 -2 9 -4 19 -4 22 -4 19 -23 32 -52 36 -26 4 -39 -1 -57 -18z"/>
<path d="M2364 946 l-30 -25 -372 3 c-297 2 -372 0 -376 -10 -3 -8 -2 -15 2
-18 4 -2 120 -5 257 -6 528 -3 495 -2 505 -21 5 -9 23 -21 39 -27 41 -14 91
16 91 55 0 34 -8 46 -37 62 -31 16 -44 14 -79 -13z"/>
</g>
</svg>
